HIERARCHY
ROOT Hips
{
	OFFSET 0.00000 0.00000 0.00000
	CHANNELS 6 Xposition Yposition Zposition Zrotation Yrotation Xrotation 
	JOINT LHipJoint
	{
		OFFSET 0 0 0
		CHANNELS 3 Zrotation Yrotation Xrotation
		JOINT LeftHip
		{
			OFFSET 1.84395 -1.68683 0.74144
			CHANNELS 3 Zrotation Yrotation Xrotation
			JOINT LeftKnee
			{
				OFFSET 2.27037 -6.23779 0.00000
				CHANNELS 3 Zrotation Yrotation Xrotation
				JOINT LeftAnkle
				{
					OFFSET 2.56918 -7.05877 0.00000
					CHANNELS 3 Zrotation Yrotation Xrotation
					JOINT LeftToe
					{
						OFFSET 0.22276 -0.61202 1.71784
						CHANNELS 3 Zrotation Yrotation Xrotation
						End Site
						{
							OFFSET 0.00000 -0.00000 0.91613
						}
					}
				}
			}
		}
	}
	JOINT RHipJoint
	{
		OFFSET 0 0 0
		CHANNELS 3 Zrotation Yrotation Xrotation
		JOINT RightHip
		{
			OFFSET -1.76833 -1.68684 0.74144
			CHANNELS 3 Zrotation Yrotation Xrotation
			JOINT RightKnee
			{
				OFFSET -2.49360 -6.85110 0.00000
				CHANNELS 3 Zrotation Yrotation Xrotation
				JOINT RightAnkle
				{
					OFFSET -2.55538 -7.02085 0.00000
					CHANNELS 3 Zrotation Yrotation Xrotation
					JOINT RightToe
					{
						OFFSET -0.21516 -0.59115 1.68050
						CHANNELS 3 Zrotation Yrotation Xrotation
						End Site
						{
							OFFSET -0.00000 -0.00000 0.89604
						}
					}
				}
			}
		}
	}
	JOINT lowerback
	{
		OFFSET 0 0 0
		CHANNELS 3 Zrotation Yrotation Xrotation
		JOINT Chest
		{
			OFFSET 0.06382 1.72312 -0.19613
			CHANNELS 3 Zrotation Yrotation Xrotation
			JOINT Chest2
			{
				OFFSET -0.00055 1.73507 0.23859
				CHANNELS 3 Zrotation Yrotation Xrotation
				JOINT lowerneck
				{
					OFFSET 0 0 0
					CHANNELS 3 Zrotation Yrotation Xrotation
					JOINT Neck
					{
						OFFSET 0.03638 1.65562 0.09633
						CHANNELS 3 Zrotation Yrotation Xrotation
						JOINT Head
						{
							OFFSET 0.06388 1.62807 -0.32386
							CHANNELS 3 Zrotation Yrotation Xrotation
							End Site
							{
								OFFSET 0.00995 1.67644 -0.12021
							}
						}
					}
				}
				JOINT LeftCollar
				{
					OFFSET 0 0 0
					CHANNELS 3 Zrotation Yrotation Xrotation
					JOINT LeftShoulder
					{
						OFFSET 3.09648 1.42991 0.28122
CHANNELS 3 Zrotation Xrotation Yrotation
						JOINT LeftElbow
						{
OFFSET 0 -5.118780 -0.000000
CHANNELS 3 Zrotation Xrotation Yrotation
							JOINT LeftWrist
							{
OFFSET 0 -3.599710 0.000000
CHANNELS 3 Zrotation Xrotation Yrotation
								JOINT lhand
								{
									OFFSET 0 0 0
CHANNELS 3 Zrotation Xrotation Yrotation
									JOINT LFingers
									{
OFFSET 0 -0.628770 0.000000
CHANNELS 3 Zrotation Xrotation Yrotation
										End Site
										{
OFFSET 0 -0.506930 0.000000
										}
									}
								}
								JOINT LThumb
								{
OFFSET 0 0.000000 0.000000
CHANNELS 3 Zrotation Xrotation Yrotation
									End Site
									{
OFFSET 0 -0.514670 0.514670
									}
								}
							}
						}
					}
				}
				JOINT RightCollar
				{
					OFFSET 0 0 0
					CHANNELS 3 Zrotation Yrotation Xrotation
					JOINT RightShoulder
					{
						OFFSET -3.33565 1.14597 0.05047
CHANNELS 3 Zrotation Xrotation Yrotation
						JOINT RightElbow
						{
OFFSET 0 -5.490200 0.000000
CHANNELS 3 Zrotation Xrotation Yrotation
							JOINT RightWrist
							{
OFFSET 0 -3.206590 -0.000000
CHANNELS 3 Zrotation Xrotation Yrotation
								JOINT rhand
								{
									OFFSET 0 0 0
CHANNELS 3 Zrotation Xrotation Yrotation
									JOINT RFingers
									{
OFFSET 0 -0.691880 0.000000
CHANNELS 3 Zrotation Xrotation Yrotation
										End Site
										{
OFFSET 0 -0.557810 0.000000
										}
									}
								}
								JOINT RThumb
								{
OFFSET 0 0.000000 0.000000
CHANNELS 3 Zrotation Xrotation Yrotation
									End Site
									{
OFFSET 0 -0.566330 0.566330
									}
								}
							}
						}
					}
				}
			}
		}
	}
}
MOTION
Frames: 12
Frame Time: 0.008333333333333333
0.571448 17.688345 8.110671 -5.521967 13.781393 16.756930 0.000000 0.000000 0.000000 -11.405413 -4.578245 -7.156578 0.398356 -4.052155 -11.223454 -0.007450 2.569779 -3.149187 1.047850 6.509541 18.270185 0.000000 0.000000 0.000000 17.447016 31.192138 0.622890 -0.011727 -0.698788 1.920264 1.189113 -31.319237 -38.273852 -1.068237 -6.570494 18.448963 -0.815172 -3.272525 2.564523 8.568924 -4.347292 0.961701 9.568935 -2.234086 0.302257 -9.468499 -6.967445 -3.430003 10.440181 -10.478274 18.671414 4.150714 -4.895818 7.308986 0.000000 0.000000 0.000000 24.746263 -53.339515 -93.369905 28.805495 -39.838532 10.639137 16.230268 -20.440209 8.333505 0.000000 0.000000 0.000000 -7.125000 0.000000 0.000000 -7.686419 21.335963 -4.401844 0.000000 0.000000 0.000000 -22.715515 -45.512471 98.824212 -23.528233 -34.661320 -7.436535 4.496142 2.227949 29.368917 0.000000 0.000000 0.000000 7.125000 0.000000 0.000000 37.358958 55.185988 -10.404397
0.592194 17.681778 8.102682 -5.056193 13.019376 17.314219 0.000000 0.000000 0.000000 -12.284710 -1.885925 -8.282967 0.419151 -4.155670 -11.514962 0.005545 0.587156 -1.763594 1.283315 7.177608 20.243115 0.000000 0.000000 0.000000 16.453828 32.090955 0.235220 -0.011582 -0.695784 1.912053 1.217014 -31.484464 -38.405129 -1.056545 -6.535699 18.346968 -0.121649 -3.714784 2.314429 8.604446 -4.966960 1.404255 9.166519 -2.567734 0.953281 -9.106502 -6.841981 -3.683489 10.474224 -10.241130 17.605021 4.110707 -4.767245 6.965401 0.000000 0.000000 0.000000 17.041281 -53.496474 -93.893928 23.759204 -34.904695 7.569935 22.128379 -19.736957 8.248076 0.000000 0.000000 0.000000 -7.125000 0.000000 0.000000 -3.423469 21.090728 -1.962579 0.000000 0.000000 0.000000 -25.311376 -48.396867 102.043420 -26.020634 -37.228620 -8.900360 -0.850651 1.320503 33.296416 0.000000 0.000000 0.000000 7.125000 0.000000 0.000000 35.919311 59.490342 -13.790489
0.610136 17.676977 8.110010 -4.837017 12.100507 17.963327 0.000000 0.000000 0.000000 -12.899995 1.085185 -9.414311 0.453776 -4.321592 -11.983240 -0.004681 -1.354825 -0.195206 1.755973 8.337265 23.743823 0.000000 0.000000 0.000000 15.652849 33.172554 -0.257973 -0.011608 -0.695062 1.910184 1.267061 -31.649241 -38.426673 -1.029946 -6.455373 18.111567 0.717329 -4.102331 2.273648 8.618099 -5.478466 1.494571 8.685564 -2.819992 1.073524 -5.763099 -6.837330 -3.169828 8.117185 -9.979493 15.262830 2.857860 -4.659280 5.820184 0.000000 0.000000 0.000000 11.412058 -52.217138 -94.033036 20.863428 -31.667464 5.978646 27.291174 -20.860860 10.184915 0.000000 0.000000 0.000000 -7.125000 0.000000 0.000000 0.186262 18.548510 0.121077 0.000000 0.000000 0.000000 -26.364352 -48.858462 98.820243 -28.333631 -39.405488 -10.341014 -1.982443 2.490789 32.182655 0.000000 0.000000 0.000000 7.125000 0.000000 0.000000 33.739069 58.837339 -12.287387
0.622333 17.682981 8.114743 -4.616555 11.139216 18.730523 0.000000 0.000000 0.000000 -13.627364 3.942482 -10.978253 0.458362 -4.343152 -12.044232 -0.033885 -3.266905 1.368294 1.951826 8.764346 25.061216 0.000000 0.000000 0.000000 14.639467 34.099138 -1.169920 -0.012510 -0.722795 1.986257 1.305035 -31.663244 -38.258484 -1.020226 -6.425606 18.024490 0.530324 -4.893281 2.768585 9.154057 -6.509138 1.282513 9.434197 -3.348881 0.817386 -5.683365 -6.252939 -3.471108 7.641328 -9.101641 15.065522 2.753635 -4.260072 5.718431 0.000000 0.000000 0.000000 10.347289 -50.102494 -91.883610 20.484443 -31.221549 5.780369 31.283392 -23.425667 12.099470 0.000000 0.000000 0.000000 -7.125000 0.000000 0.000000 2.802593 15.909249 1.929487 0.000000 0.000000 0.000000 -29.820388 -49.978017 97.490167 -32.979155 -43.306279 -13.410426 2.516508 0.472510 30.176764 0.000000 0.000000 0.000000 7.125000 0.000000 0.000000 36.216709 56.233027 -10.988423
0.646795 17.661039 8.103824 -5.064485 9.825730 18.980351 0.000000 0.000000 0.000000 -13.819574 7.531644 -12.056118 0.474586 -4.418022 -12.255746 -0.080984 -5.150751 3.063399 2.414621 9.678580 27.944098 0.000000 0.000000 0.000000 14.598806 34.076867 -2.031949 -0.013700 -0.756200 2.078200 1.673985 -31.547582 -36.096494 -0.738727 -5.490618 15.313432 1.346680 -5.283607 3.534530 9.476391 -6.958876 1.281393 9.404953 -3.566248 0.404173 -4.771653 -5.739506 -3.887856 6.650609 -8.333181 15.170251 2.339614 -3.892721 5.688937 0.000000 0.000000 0.000000 10.733190 -48.568987 -90.267158 21.492713 -32.398127 6.312281 32.926477 -25.914942 11.626279 0.000000 0.000000 0.000000 -7.125000 0.000000 0.000000 3.982585 16.229158 2.716631 0.000000 0.000000 0.000000 -37.892146 -52.898618 96.869652 -39.622443 -47.837465 -18.161087 5.213513 -5.064021 29.553716 0.000000 0.000000 0.000000 7.125000 0.000000 0.000000 38.170239 55.194210 -10.691797
0.651801 17.663710 8.128032 -5.706708 9.109406 19.419191 0.000000 0.000000 0.000000 -13.777516 10.432678 -13.608610 0.452082 -4.313315 -11.959960 -0.150146 -7.086402 4.513833 2.485028 9.810633 28.365655 0.000000 0.000000 0.000000 14.858515 34.598386 -2.714378 -0.015001 -0.789825 2.170669 1.710485 -31.340366 -35.507062 -0.718360 -5.416204 15.099630 2.685588 -5.499497 3.376009 9.554095 -7.209616 1.295526 8.712898 -3.678715 0.389745 -3.684356 -5.552582 -4.079744 6.006780 -8.075245 15.081167 1.976788 -3.748893 5.608503 0.000000 0.000000 0.000000 11.592216 -47.329527 -89.917516 23.033289 -34.125187 7.156990 32.769494 -27.825850 9.661088 0.000000 0.000000 0.000000 -7.125000 0.000000 0.000000 4.090676 18.551384 2.583237 0.000000 0.000000 0.000000 -42.736576 -52.782506 91.201370 -42.955137 -49.726358 -20.666498 9.028368 -5.073557 27.821577 0.000000 0.000000 0.000000 7.125000 0.000000 0.000000 40.163426 53.100969 -9.180741
0.652058 17.670517 8.144651 -5.611787 7.964390 19.672672 0.000000 0.000000 0.000000 -14.717825 13.528113 -14.770978 0.441553 -4.263437 -11.819002 -0.227742 -8.863845 6.200888 2.794836 10.355278 30.135070 0.000000 0.000000 0.000000 14.260324 34.677364 -3.355873 -0.015516 -0.803351 2.207871 1.852385 -31.045484 -34.101298 -0.588574 -4.911832 13.657160 2.716010 -5.850280 3.752867 9.690609 -7.649187 1.282430 8.896944 -3.904256 0.240850 -3.408650 -5.045148 -4.231695 5.385649 -7.331669 15.267211 1.784969 -3.410267 5.620835 0.000000 0.000000 0.000000 12.650625 -45.787339 -88.583489 24.242830 -35.419447 7.847165 31.739624 -28.634471 9.968333 0.000000 0.000000 0.000000 -7.125000 0.000000 0.000000 3.336988 18.314792 2.122881 0.000000 0.000000 0.000000 -49.662995 -54.639908 88.421241 -46.061152 -51.276317 -23.064178 8.017129 -6.821999 28.109835 0.000000 0.000000 0.000000 7.125000 0.000000 0.000000 39.502301 53.514088 -9.417083
0.623769 17.700366 8.197090 -4.265552 5.360851 20.158557 0.000000 0.000000 0.000000 -17.113063 17.790648 -15.651256 0.474507 -4.417968 -12.255614 -0.269746 -10.146659 8.380008 3.809649 11.901829 35.386708 0.000000 0.000000 0.000000 11.951236 35.014560 -4.445980 -0.019545 -0.901701 2.478402 1.949721 -30.293994 -31.955280 -0.441189 -4.261336 11.813114 0.867961 -5.672161 3.492022 9.183108 -7.524785 1.403465 9.343430 -3.868046 0.664255 -2.604920 -4.987917 -4.479141 4.820791 -7.273374 15.755999 1.472033 -3.364479 5.763769 0.000000 0.000000 0.000000 14.083148 -44.972933 -88.907204 25.449871 -36.660193 8.557144 31.547348 -29.212558 10.622674 0.000000 0.000000 0.000000 -7.125000 0.000000 0.000000 3.137366 17.579334 2.046275 0.000000 0.000000 0.000000 -52.522698 -55.588419 85.540798 -44.039602 -50.288687 -21.497533 7.096405 -4.756549 27.712561 0.000000 0.000000 0.000000 7.125000 0.000000 0.000000 38.368813 53.364375 -8.927058
0.599520 17.706137 8.210459 -4.376995 3.187915 20.545476 0.000000 0.000000 0.000000 -18.087360 21.985274 -17.139378 0.474219 -4.416292 -12.250933 -0.299702 -11.349657 10.544443 4.487773 12.781857 38.558596 0.000000 0.000000 0.000000 11.320488 35.318236 -5.764924 -0.025874 -1.038430 2.854634 2.003718 -29.382837 -29.595452 -0.283660 -3.420915 9.453345 0.559672 -5.692659 3.671962 9.114727 -7.563438 1.443208 9.462613 -3.894428 0.642478 -2.203285 -4.426507 -4.216016 4.037236 -6.431930 15.626090 1.227790 -2.995645 5.605403 0.000000 0.000000 0.000000 15.719087 -44.068848 -87.574768 26.494449 -37.692409 9.188468 34.462324 -31.180952 11.336748 0.000000 0.000000 0.000000 -7.125000 0.000000 0.000000 5.070574 16.347786 3.452106 0.000000 0.000000 0.000000 -53.132605 -57.468160 85.325144 -40.194048 -48.179340 -18.585299 4.693181 -2.727613 28.380189 0.000000 0.000000 0.000000 7.125000 0.000000 0.000000 36.734326 54.347737 -9.398163
0.564312 17.707551 8.213468 -4.914495 0.560461 20.936135 0.000000 0.000000 0.000000 -18.931111 26.641359 -19.141859 0.442894 -4.270111 -11.837944 -0.316464 -12.566641 12.855203 5.076861 13.469359 41.152727 0.000000 0.000000 0.000000 11.134949 35.966889 -7.088081 -0.030859 -1.134497 3.118976 2.013534 -28.308163 -27.016658 -0.159108 -2.569071 7.081398 0.672352 -5.288144 3.706300 8.792701 -7.036281 1.692972 9.031356 -3.627996 0.740458 -5.327910 -4.401257 -6.441610 7.242368 -6.747534 18.986161 2.677540 -3.024298 7.288239 0.000000 0.000000 0.000000 17.527423 -43.996808 -86.433465 27.628265 -38.771607 9.890070 32.423634 -32.932352 10.973685 0.000000 0.000000 0.000000 -7.125000 0.000000 0.000000 3.709095 17.059649 2.462921 0.000000 0.000000 0.000000 -50.530890 -58.781292 86.400649 -35.018358 -44.820520 -14.827859 3.335502 -1.996164 30.038691 0.000000 0.000000 0.000000 7.125000 0.000000 0.000000 36.857600 55.956146 -10.961720
0.523874 17.706944 8.206388 -5.311367 -2.477687 21.658545 0.000000 0.000000 0.000000 -20.617509 31.329652 -21.942302 0.396547 -4.042850 -11.197260 -0.299948 -13.613136 15.220330 5.621955 14.051154 43.443958 0.000000 0.000000 0.000000 10.458290 36.324107 -9.237550 -0.040927 -1.305050 3.588570 1.954978 -26.775960 -23.669442 -0.028263 -1.061705 2.918770 1.250565 -4.364691 3.252292 7.851301 -5.829461 2.086506 7.607656 -3.001180 1.057983 -4.421144 -4.415886 -6.225014 7.078108 -6.844877 18.672207 2.468259 -3.030182 7.120889 0.000000 0.000000 0.000000 19.607376 -44.740744 -86.379660 28.485526 -39.558934 10.431643 31.731655 -33.953114 10.775703 0.000000 0.000000 0.000000 -7.125000 0.000000 0.000000 3.250048 17.379119 2.134406 0.000000 0.000000 0.000000 -46.178544 -59.263485 87.465702 -29.404825 -40.369453 -11.025103 1.338278 1.552839 30.835198 0.000000 0.000000 0.000000 7.125000 0.000000 0.000000 35.688152 57.013664 -11.493618
0.457993 17.705819 8.208842 -6.083199 -5.559986 22.334690 0.000000 0.000000 0.000000 -21.991322 36.280586 -24.798944 0.349773 -3.799771 -10.513966 -0.258046 -14.580214 17.572710 6.065202 14.491130 45.242606 0.000000 0.000000 0.000000 10.476963 37.173806 -10.864225 -0.048713 -1.423850 3.915892 1.777115 -25.082060 -21.039036 -0.000481 -0.133618 0.367177 2.278269 -3.042584 2.376875 6.649062 -4.135433 2.881714 5.637148 -2.121759 1.984142 -4.853937 -4.705256 -6.587051 8.507253 -7.464524 18.924460 2.943631 -3.227199 7.374445 0.000000 0.000000 0.000000 22.011745 -46.228272 -87.643543 28.729358 -39.779000 10.587093 34.157613 -32.674089 10.250139 0.000000 0.000000 0.000000 -7.125000 0.000000 0.000000 4.993259 17.681060 3.253248 0.000000 0.000000 0.000000 -42.062403 -59.176879 87.223117 -25.013395 -36.214411 -8.299122 -3.171394 6.719668 33.873859 0.000000 0.000000 0.000000 7.125000 0.000000 0.000000 34.242338 60.504514 -13.886989
